<svg viewBox="0 0 200 200" xmlns="http://www.w3.org/2000/svg"><defs><style>.a,.g{fill:#a528a4}.b,.h{fill:#cd3834}.c,.i{fill:#ff890a}.d,.j{fill:#f4ce47}.e,.k{fill:#8dda86}.f,.l{fill:#4371be}</style></defs><path fill="#0e1115" d="M0 0h200v200H0z"/><g id="a"><path class="l" d="m84.593 42.5h30.814l-36.453-21.046z"/><path class="a" d="m100 51.395 15.407-8.895 26.686 15.407-21.047-36.453-36.453 21.046z"/><path class="b" d="m124.302 57.907h17.791l15.407 26.686v-42.093h-42.093z"/><path class="c" d="m142.093 75.698 15.407 8.895v30.814l21.046-36.453-36.453-21.047z"/><path class="d" d="m148.605 100 8.895 15.407-15.407 26.686 36.453-21.047-21.046-36.453z"/><path class="e" d="m142.093 124.302v17.791l-26.686 15.407h42.093v-42.093z"/><path class="f" d="m124.302 142.093-8.895 15.407h-30.814l36.453 21.046 21.047-36.453z"/><path class="g" d="m100 148.605-15.407 8.895-26.686-15.407 21.047 36.453 36.453-21.046z"/><path class="h" d="m57.907 142.093-15.407-26.686v42.093h42.093l-8.895-15.407z"/><path class="i" d="m42.5 115.407v-30.814l-21.046 36.453 36.453 21.047v-17.791z"/><path class="j" d="M21.454,78.954 42.5,115.407 51.395,100 42.5,84.593 57.907,57.907Z"/><path class="k" d="m57.907 75.698v-17.791l26.686-15.407h-42.093v42.093z"/><path class="l" d="M75.698,57.907 84.593,42.5 100,33.605 78.954,21.454 57.907,57.907Z"/></g></svg>
