<svg xmlns="http://www.w3.org/2000/svg" viewBox="0 0 64 57"><path fill="#fff" d="M13.87 3.8C21.21 9.34 29.1 20.54 32 26.55v15.88c0-.34-.13.05-.41.87-1.51 4.46-7.42 21.85-20.92 7.94-7.11-7.32-3.82-14.64 9.12-16.85-7.4 1.27-15.73-.82-18.01-9.01C1.12 23.02 0 8.5 0 6.55 0-3.27 8.58-.18 13.87 3.81Zm36.26 0C42.79 9.34 34.9 20.54 32 26.55v15.88c0-.34.13.05.41.87 1.51 4.46 7.42 21.85 20.92 7.94 7.11-7.32 3.82-14.64-9.12-16.85 7.4 1.27 15.73-.82 18.01-9.01C62.88 23.02 64 8.5 64 6.55c0-9.82-8.58-6.73-13.87-2.74Z"/></svg>