<?xml version="1.0" encoding="UTF-8"?>
<svg version="1.1" viewBox="0 0 42 41" xmlns="http://www.w3.org/2000/svg">
	<path fill="white"
		  d="m20.998 0c-11.596 0-20.998 9.402-20.998 21.001 0 9.2783 6.0166 17.149 14.362 19.927 1.0507 0.19222 1.4336-0.45636 1.4336-1.0133 0-0.49765-0.01791-1.819-0.0285-3.5711-5.8413 1.2686-7.0738-2.8156-7.0738-2.8156-0.95528-2.425-2.3321-3.0708-2.3321-3.0708-1.9067-1.3034 0.14438-1.2776 0.14438-1.2776 2.1078 0.14946 3.2165 2.1645 3.2165 2.1645 1.8732 3.2088 4.9157 2.2819 6.112 1.7456 0.1908-1.3575 0.73226-2.2831 1.333-2.8078-4.663-0.52985-9.5657-2.3321-9.5657-10.379 0-2.2922 0.81863-4.1666 2.162-5.635-0.2166-0.53115-0.93724-2.666 0.20497-5.5577 0 0 1.7636-0.56466 5.7755 2.1529 1.6746-0.46539 3.4718-0.69874 5.2573-0.70647 1.7829 0.0077 3.5801 0.24108 5.2573 0.70647 4.0094-2.7176 5.7691-2.1529 5.7691-2.1529 1.1461 2.8916 0.42543 5.0265 0.20885 5.5577 1.3459 1.4684 2.1594 3.3428 2.1594 5.635 0 8.0677-4.9105 9.8429-9.5889 10.362 0.75417 0.64847 1.4258 1.9299 1.4258 3.8895 0 2.8065-0.02595 5.0716-0.02595 5.7601 0 0.56208 0.37773 1.2157 1.4439 1.0107 8.3384-2.7833 14.35-10.649 14.35-19.924 0-11.599-9.4033-21.001-21.002-21.001"
		  style="fill-rule:evenodd"/>
</svg>
