<svg viewBox="0 0 2499.85 2499.85" xmlns="http://www.w3.org/2000/svg">
	<path xmlns="http://www.w3.org/2000/svg" fill="white" d="m1249.92,225.18c333.75,0,373.28,1.25,505.09,7.27,121.88,5.56,188.06,25.9,232.1,43.03,58.37,22.69,99.99,49.74,143.73,93.48,43.73,43.74,70.84,85.37,93.48,143.73,17.13,44.04,37.47,110.22,43.03,232.1,6.01,131.81,7.27,171.33,7.27,505.09s-1.25,373.27-7.27,505.08c-5.56,121.88-25.9,188.06-43.03,232.1-22.69,58.37-49.74,99.99-93.48,143.73-43.74,43.73-85.37,70.84-143.73,93.48-44.04,17.13-110.22,37.47-232.1,43.03-131.8,6.01-171.33,7.27-505.09,7.27s-373.27-1.25-505.08-7.27c-121.88-5.56-188.06-25.9-232.1-43.03-58.37-22.7-99.99-49.75-143.73-93.48-43.73-43.74-70.84-85.37-93.48-143.73-17.14-44.04-37.47-110.22-43.03-232.1-6.01-131.8-7.27-171.33-7.27-505.08s1.25-373.27,7.27-505.09c5.56-121.88,25.9-188.06,43.03-232.1,22.69-58.37,49.74-99.99,93.48-143.73,43.74-43.73,85.37-70.84,143.73-93.48,44.04-17.13,110.22-37.47,232.1-43.03,131.8-5.96,171.33-7.27,505.08-7.27Zm0-225.18c-339.46,0-382.04,1.45-515.35,7.51-133.06,6.06-223.89,27.21-303.39,58.11-82.21,31.96-151.89,74.7-221.38,144.18-69.48,69.49-112.26,139.17-144.18,221.38-30.91,79.51-52.05,170.38-58.11,303.39C1.45,867.89,0,910.47,0,1249.92s1.45,382.04,7.51,515.35c6.06,133.06,27.21,223.89,58.11,303.39,31.96,82.21,74.7,151.89,144.18,221.38,69.49,69.49,139.22,112.22,221.38,144.18,79.51,30.91,170.38,52.05,303.39,58.11,133.31,6.06,175.89,7.51,515.35,7.51s382.04-1.45,515.35-7.51c133.06-6.06,223.89-27.21,303.39-58.11,82.21-31.97,151.89-74.7,221.38-144.18,69.49-69.49,112.22-139.22,144.18-221.38,30.91-79.5,52.05-170.38,58.11-303.39,6.06-133.31,7.51-175.89,7.51-515.35s-1.45-382.04-7.51-515.35c-6.06-133.06-27.21-223.89-58.11-303.39-31.97-82.21-74.7-151.89-144.18-221.38-69.49-69.48-139.22-112.22-221.38-144.18-79.5-30.91-170.38-52.05-303.39-58.11C1631.97,1.45,1589.38,0,1249.92,0Zm0,608.08c-354.49,0-641.84,287.35-641.84,641.84s287.35,641.85,641.84,641.85,641.85-287.36,641.85-641.85-287.36-641.84-641.85-641.84Zm0,1058.51c-230.09,0-416.66-186.51-416.66-416.66s186.57-416.66,416.66-416.66,416.66,186.51,416.66,416.66-186.57,416.66-416.66,416.66ZM1917.12,432.74c-82.86,0-149.99,67.13-149.99,149.99s67.13,150,149.99,150,150-67.14,150-150-67.13-149.99-150-149.99Z"/>
</svg>
