<?xml version="1.0" encoding="UTF-8"?>
<!-- From https://github.com/modrinth/knossos/blob/master/assets/images/logo.svg -->
<svg version="1.1" viewBox="0 0 512 514" xmlns="http://www.w3.org/2000/svg">
	<path fill="#00D845"
		  d="m253.28 1.0098c-21.137 0.20988-42.59 3.0539-63.951 8.7695-105.52 28.24-177.94 118.29-188.64 220.69h43.301c10.3-83.14 69.75-155.74 155.76-178.76 106.3-28.45 215.38 28.962 253.42 129.67l-42.141 11.27c-19.39-46.85-58.459-81.2-104.73-95.83l-7.7402 43.84c36.53 13.47 66.16 43.84 77 84.25 15.8 58.89-13.62 119.23-67 144.26l11.529 42.99c70.16-28.95 112.31-101.86 102.34-177.02l41.98-11.23c4.5 28.71 2.9406 57.25-3.8594 84.16l42.609 15.49c11.39-42.09 12.159-87.651 0.03906-132.8-30.907-115.2-135.78-190.88-249.92-189.75zm-2.9434 88.078c-12.652 0.41156-25.457 2.2594-38.207 5.6719-89.72 24.01-142.96 116.11-118.92 205.71 2.18 8.13 4.9198 15.949 8.1699 23.449l-38.592 23.15c-5.34-11.32-9.7494-23.271-13.109-35.781-3.21-11.94-5.3202-23.918-6.4102-35.828h-43.27c1.17 15.87 3.8394 31.849 8.1094 47.779 36.64 136.53 177.16 217.56 313.88 180.98 76.23-20.4 135.18-73.06 166.07-139.34l-42.641-15.5c-26.02 53.18-74.071 95.259-135.81 111.78-85.77 22.95-173.36-9.9905-223.97-76.48l38.41-23.039c36.05 45.18 94.078 69.77 153.49 61.91l-11.529-42.99c-39.81 3.37-78.21-12.781-103.75-41.861l49.82-29.889 28.58 31.82 63.73-20.182 38.029-46.629-10.98-24.701-36.859 11.67-16.881 18.541-23.719 6.3105c-0.03-0.00999-16.82-17.852-16.82-17.852l-8.291-23.068 16.92-17.391 23.682-7.4492 27.148-27.5-17.049-20.99-58.9 12.689-46.6 47.869 14.869 39.432-49.35 29.609c-1.46-3.86-2.7398-7.8304-3.8398-11.9-17.74-66.14 21.559-134.11 87.779-151.84 10.58-2.83 21.2-4.2 31.66-4.25l7.7402-43.85c-4.175-0.1775-8.3746-0.19969-12.592-0.0625z"/>
</svg>
