<svg xmlns="http://www.w3.org/2000/svg" viewBox="0 0 30 30"><path fill="#1d9bf0" d="M26.1 9.23c.02.25.02.5.02.75 0 7.67-5.78 16.5-16.3 16.5-3.12 0-6.18-.9-8.81-2.6a11.43 11.43 0 0 0 8.5-2.4 5.77 5.77 0 0 1-5.37-4.04c.86.17 1.75.13 2.59-.1a5.8 5.8 0 0 1-4.61-5.69v-.07c.8.45 1.69.7 2.6.72a5.86 5.86 0 0 1-1.77-7.75 16.26 16.26 0 0 0 11.8 6.07 5.86 5.86 0 0 1 1.66-5.55 5.7 5.7 0 0 1 8.13.26c1.29-.26 2.52-.74 3.65-1.41a5.81 5.81 0 0 1-2.53 3.2c1.14-.13 2.25-.44 3.3-.9a11.6 11.6 0 0 1-2.87 3z"/></svg>
